# xmcd
#
# Track frame offsets: 
#        150
#        22462
#        40617
#        64597
#        83415
#        108937
#        127465
#        140432
#        161870
#        177355
#        199250
#
# Disc length: 3025 seconds
#
# Revision: 0
# Processed by: cddbd v1.5.2PL0 Copyright (c) Steve Scherf et al.
# Submitted via: ExactAudioCopy v0.99pb3
#
DISCID=9d0bcf0b
DTITLE=Earl Seratte and The Blues Kings - Verité
DYEAR=2001
DGENRE=Blues
TTITLE0=Why Don't You Love Me
TTITLE1=She Walks Right In
TTITLE2=Walkin' In Your Sleep
TTITLE3=That Girl
TTITLE4=Complicated
TTITLE5=In The Morning
TTITLE6=Just A Little Bit
TTITLE7=Bendin' Like A Willow Tree
TTITLE8=Walking By Myself
TTITLE9=Keep On Movin'
TTITLE10=Don't Drink The Water
EXTD=
EXTT0=
EXTT1=
EXTT2=
EXTT3=
EXTT4=
EXTT5=
EXTT6=
EXTT7=
EXTT8=
EXTT9=
EXTT10=
PLAYORDER=
